<svg width="148" height="31" viewBox="0 0 148 31" fill="none" xmlns="http://www.w3.org/2000/svg">
<path d="M7.368 24.288C6.136 24.288 5.048 24.08 4.104 23.664C3.16 23.232 2.416 22.624 1.872 21.84C1.328 21.04 1.048 20.072 1.032 18.936H4.272C4.304 19.72 4.584 20.384 5.112 20.928C5.656 21.456 6.4 21.72 7.344 21.72C8.16 21.72 8.808 21.528 9.288 21.144C9.768 20.744 10.008 20.216 10.008 19.56C10.008 18.872 9.792 18.336 9.36 17.952C8.944 17.568 8.384 17.256 7.68 17.016C6.976 16.776 6.224 16.52 5.424 16.248C4.128 15.8 3.136 15.224 2.448 14.52C1.776 13.816 1.44 12.88 1.44 11.712C1.424 10.72 1.656 9.872 2.136 9.168C2.632 8.448 3.304 7.896 4.152 7.512C5 7.112 5.976 6.912 7.08 6.912C8.2 6.912 9.184 7.112 10.032 7.512C10.896 7.912 11.568 8.472 12.048 9.192C12.544 9.912 12.808 10.768 12.84 11.76H9.552C9.536 11.168 9.304 10.648 8.856 10.2C8.424 9.736 7.816 9.504 7.032 9.504C6.36 9.488 5.792 9.656 5.328 10.008C4.88 10.344 4.656 10.84 4.656 11.496C4.656 12.056 4.832 12.504 5.184 12.84C5.536 13.16 6.016 13.432 6.624 13.656C7.232 13.88 7.928 14.12 8.712 14.376C9.544 14.664 10.304 15 10.992 15.384C11.68 15.768 12.232 16.28 12.648 16.92C13.064 17.544 13.272 18.352 13.272 19.344C13.272 20.224 13.048 21.04 12.6 21.792C12.152 22.544 11.488 23.152 10.608 23.616C9.728 24.064 8.648 24.288 7.368 24.288ZM17.5363 10.248C16.9763 10.248 16.5123 10.08 16.1443 9.744C15.7923 9.408 15.6163 8.984 15.6163 8.472C15.6163 7.96 15.7923 7.544 16.1443 7.224C16.5123 6.888 16.9763 6.72 17.5363 6.72C18.0963 6.72 18.5523 6.888 18.9043 7.224C19.2723 7.544 19.4563 7.96 19.4563 8.472C19.4563 8.984 19.2723 9.408 18.9043 9.744C18.5523 10.08 18.0963 10.248 17.5363 10.248ZM16.0003 24V12.096H19.0723V24H16.0003ZM22.2788 24V12.096H24.9908L25.2548 13.704C25.6388 13.128 26.1428 12.672 26.7668 12.336C27.4068 11.984 28.1428 11.808 28.9748 11.808C30.8148 11.808 32.1188 12.52 32.8868 13.944C33.3188 13.288 33.8948 12.768 34.6148 12.384C35.3508 12 36.1508 11.808 37.0148 11.808C38.5668 11.808 39.7588 12.272 40.5908 13.2C41.4228 14.128 41.8388 15.488 41.8388 17.28V24H38.7668V17.568C38.7668 16.544 38.5668 15.76 38.1668 15.216C37.7828 14.672 37.1828 14.4 36.3668 14.4C35.5348 14.4 34.8628 14.704 34.3508 15.312C33.8548 15.92 33.6068 16.768 33.6068 17.856V24H30.5348V17.568C30.5348 16.544 30.3348 15.76 29.9348 15.216C29.5348 14.672 28.9188 14.4 28.0868 14.4C27.2708 14.4 26.6068 14.704 26.0948 15.312C25.5988 15.92 25.3508 16.768 25.3508 17.856V24H22.2788ZM44.7553 29.28V12.096H47.4913L47.8273 13.8C48.2113 13.272 48.7153 12.808 49.3393 12.408C49.9793 12.008 50.8033 11.808 51.8113 11.808C52.9313 11.808 53.9313 12.08 54.8113 12.624C55.6913 13.168 56.3873 13.912 56.8993 14.856C57.4113 15.8 57.6673 16.872 57.6673 18.072C57.6673 19.272 57.4113 20.344 56.8993 21.288C56.3873 22.216 55.6913 22.952 54.8113 23.496C53.9313 24.024 52.9313 24.288 51.8113 24.288C50.9153 24.288 50.1313 24.12 49.4593 23.784C48.7873 23.448 48.2433 22.976 47.8273 22.368V29.28H44.7553ZM51.1633 21.6C52.1393 21.6 52.9473 21.272 53.5873 20.616C54.2273 19.96 54.5473 19.112 54.5473 18.072C54.5473 17.032 54.2273 16.176 53.5873 15.504C52.9473 14.832 52.1393 14.496 51.1633 14.496C50.1713 14.496 49.3553 14.832 48.7153 15.504C48.0913 16.16 47.7793 17.008 47.7793 18.048C47.7793 19.088 48.0913 19.944 48.7153 20.616C49.3553 21.272 50.1713 21.6 51.1633 21.6ZM66.2023 24V7.2H72.3703C73.7143 7.2 74.8183 7.432 75.6823 7.896C76.5623 8.344 77.2183 8.96 77.6503 9.744C78.0823 10.512 78.2983 11.368 78.2983 12.312C78.2983 13.336 78.0263 14.272 77.4823 15.12C76.9543 15.968 76.1223 16.584 74.9863 16.968L78.4663 24H74.9383L71.8183 17.376H69.2743V24H66.2023ZM69.2743 15.12H72.1783C73.2023 15.12 73.9543 14.872 74.4343 14.376C74.9143 13.88 75.1543 13.224 75.1543 12.408C75.1543 11.608 74.9143 10.968 74.4343 10.488C73.9703 10.008 73.2103 9.768 72.1543 9.768H69.2743V15.12ZM86.1409 24.288C84.9409 24.288 83.8769 24.032 82.9489 23.52C82.0209 23.008 81.2929 22.288 80.7649 21.36C80.2369 20.432 79.9729 19.36 79.9729 18.144C79.9729 16.912 80.2289 15.816 80.7409 14.856C81.2689 13.896 81.9889 13.152 82.9009 12.624C83.8289 12.08 84.9169 11.808 86.1649 11.808C87.3329 11.808 88.3649 12.064 89.2609 12.576C90.1569 13.088 90.8529 13.792 91.3489 14.688C91.8609 15.568 92.1169 16.552 92.1169 17.64C92.1169 17.816 92.1089 18 92.0929 18.192C92.0929 18.384 92.0849 18.584 92.0689 18.792H83.0209C83.0849 19.72 83.4049 20.448 83.9809 20.976C84.5729 21.504 85.2849 21.768 86.1169 21.768C86.7409 21.768 87.2609 21.632 87.6769 21.36C88.1089 21.072 88.4289 20.704 88.6369 20.256H91.7569C91.5329 21.008 91.1569 21.696 90.6289 22.32C90.1169 22.928 89.4769 23.408 88.7089 23.76C87.9569 24.112 87.1009 24.288 86.1409 24.288ZM86.1649 14.304C85.4129 14.304 84.7489 14.52 84.1729 14.952C83.5969 15.368 83.2289 16.008 83.0689 16.872H88.9969C88.9489 16.088 88.6609 15.464 88.1329 15C87.6049 14.536 86.9489 14.304 86.1649 14.304ZM97.4479 24L93.0799 12.096H96.2959L99.3199 21.096L102.344 12.096H105.56L101.168 24H97.4479ZM109.154 10.248C108.594 10.248 108.13 10.08 107.762 9.744C107.41 9.408 107.234 8.984 107.234 8.472C107.234 7.96 107.41 7.544 107.762 7.224C108.13 6.888 108.594 6.72 109.154 6.72C109.714 6.72 110.17 6.888 110.522 7.224C110.89 7.544 111.074 7.96 111.074 8.472C111.074 8.984 110.89 9.408 110.522 9.744C110.17 10.08 109.714 10.248 109.154 10.248ZM107.618 24V12.096H110.69V24H107.618ZM119.68 24.288C118.48 24.288 117.416 24.032 116.488 23.52C115.56 23.008 114.832 22.288 114.304 21.36C113.776 20.432 113.512 19.36 113.512 18.144C113.512 16.912 113.768 15.816 114.28 14.856C114.808 13.896 115.528 13.152 116.44 12.624C117.368 12.08 118.456 11.808 119.704 11.808C120.872 11.808 121.904 12.064 122.8 12.576C123.696 13.088 124.392 13.792 124.888 14.688C125.4 15.568 125.656 16.552 125.656 17.64C125.656 17.816 125.648 18 125.632 18.192C125.632 18.384 125.624 18.584 125.608 18.792H116.56C116.624 19.72 116.944 20.448 117.52 20.976C118.112 21.504 118.824 21.768 119.656 21.768C120.28 21.768 120.8 21.632 121.216 21.36C121.648 21.072 121.968 20.704 122.176 20.256H125.296C125.072 21.008 124.696 21.696 124.168 22.32C123.656 22.928 123.016 23.408 122.248 23.76C121.496 24.112 120.64 24.288 119.68 24.288ZM119.704 14.304C118.952 14.304 118.288 14.52 117.712 14.952C117.136 15.368 116.768 16.008 116.608 16.872H122.536C122.488 16.088 122.2 15.464 121.672 15C121.144 14.536 120.488 14.304 119.704 14.304ZM130.099 24L126.619 12.096H129.667L131.731 20.664L134.131 12.096H137.539L139.939 20.664L142.027 12.096H145.075L141.571 24H138.379L135.835 15.096L133.291 24H130.099Z" fill="black"/>
<circle cx="146.5" cy="22.5" r="1.5" fill="#FFD662"/>
</svg>
